<svg id="Layer_1" data-name="Layer 1" xmlns="http://www.w3.org/2000/svg" viewBox="0 0 493.44 225"><path d="M180.36,20.17a17.45,17.45,0,0,0-3.84-14.23A16.64,16.64,0,0,0,163.17,0a21.07,21.07,0,0,0-8,1.61,25.92,25.92,0,0,0-7,4.21,23.24,23.24,0,0,0-5.15,6.3,23.91,23.91,0,0,0-2.75,7.82,20.55,20.55,0,0,0,.58,7.83,16.5,16.5,0,0,0,3.38,6.41,17.35,17.35,0,0,0,5.81,4.3,17.91,17.91,0,0,0,7.65,1.63,21.13,21.13,0,0,0,8-1.61,25.89,25.89,0,0,0,7-4.22A22.87,22.87,0,0,0,177.83,28,20.49,20.49,0,0,0,180.36,20.17Z" fill="#ff5f00"/><path d="M172.16,52.61h-16.1A20.36,20.36,0,0,0,136,70.08L123.4,160a1,1,0,0,0,1,1.12h16.1a20.37,20.37,0,0,0,20.08-17.46l12.58-89.92a1,1,0,0,0-.23-.78A1,1,0,0,0,172.16,52.61Z" fill="#ff5f00"/><path d="M109.07,65.52h0A47.83,47.83,0,0,0,91.39,54a63.92,63.92,0,0,0-22.93-4,73.2,73.2,0,0,0-24,4c-.74.26-1.5.53-2.31.85l4.1-32A20.26,20.26,0,0,0,26.15,0H15.2a1,1,0,0,0-1,.86L.63,106.73a54,54,0,0,0,1.46,23.44,45.62,45.62,0,0,0,10.31,18A46.68,46.68,0,0,0,30,159.73a63.92,63.92,0,0,0,22.93,4,73,73,0,0,0,24-4,67.46,67.46,0,0,0,20.69-11.45,67.88,67.88,0,0,0,15.35-17.91A61.9,61.9,0,0,0,121,107a54.24,54.24,0,0,0-1.46-23.44A45.09,45.09,0,0,0,109.07,65.52Zm-32.4,60.13c-5.12,4.77-11.79,7.19-19.83,7.19S43,130.46,39.31,125.77s-5-11-3.86-18.77,4.28-14.14,9.35-18.94,11.69-7.18,19.72-7.18A27.23,27.23,0,0,1,75.74,83,14.76,14.76,0,0,0,85.87,108.2,30.83,30.83,0,0,1,76.67,125.65Z" fill="#ff5f00"/><path d="M409.94,149.14c-1.95-5.72-2.46-12.47-1.51-20l2.24-17.63,1.37-10c.35-2.41.63-5,.88-7.8a113.84,113.84,0,0,0,.45-12.31A39.62,39.62,0,0,0,409.76,65a24.54,24.54,0,0,0-10.94-11.07c-4.95-2.62-11.74-4-20.19-4a41.15,41.15,0,0,0-11.46,1.57,41.76,41.76,0,0,0-9.54,4.05,34.41,34.41,0,0,0-7.22,5.64,30.93,30.93,0,0,0-2.81,3.34l5.17-41.82A20.28,20.28,0,0,0,332.65,0H321.33a1,1,0,0,0-1,.85L299.4,160a1,1,0,0,0,.23.78,1,1,0,0,0,.74.33h16.11a20.36,20.36,0,0,0,20.08-17.45l5.12-36.46a71.66,71.66,0,0,1,1.94-9.94,27.8,27.8,0,0,1,3.81-8.37A18.58,18.58,0,0,1,354,83.06a21.36,21.36,0,0,1,10.17-2.18c4,0,6.93.81,8.79,2.39a12.28,12.28,0,0,1,3.85,6.3,25.59,25.59,0,0,1,.63,8.77c-.29,3.29-.66,6.48-1.09,9.48l-4.19,30.23a20.27,20.27,0,0,0,20.08,23.06H414.8a1,1,0,0,0,.88-.55,1,1,0,0,0-.11-1A33.7,33.7,0,0,1,409.94,149.14Z" fill="#ff5f00"/><path d="M460.84,80.88H472a20.36,20.36,0,0,0,20.08-17.47l1.36-9.68a1,1,0,0,0-.23-.78,1,1,0,0,0-.74-.34H464.82l3.61-29.9A20.29,20.29,0,0,0,448.29,0h-12a1,1,0,0,0-1,.86L418.9,130.42c-.75,6-.4,11.13,1,15.34a22.46,22.46,0,0,0,7.1,10.42,29.42,29.42,0,0,0,8.93,4.88c1,.35,2,.65,3,.9a62,62,0,0,0,15.37,1.78,109.63,109.63,0,0,0,11.83-.66,54.85,54.85,0,0,0,11.95-2.68,1,1,0,0,0,.65-.79l3.49-25.72a1,1,0,0,0-.27-.82,1,1,0,0,0-.82-.29l-6.46.84a55.67,55.67,0,0,1-6.78.54,18.5,18.5,0,0,1-7.8-1.33,7.36,7.36,0,0,1-3.69-3.58,13.83,13.83,0,0,1-1.12-5.84,53.68,53.68,0,0,1,.65-7.86Z" fill="#ff5f00"/><path d="M294.26,83.56a44.91,44.91,0,0,0-10.42-18A47.83,47.83,0,0,0,266.16,54a63.92,63.92,0,0,0-22.93-4,73.24,73.24,0,0,0-24,4,67.51,67.51,0,0,0-20.69,11.46,66.06,66.06,0,0,0-15.24,17.91,62.94,62.94,0,0,0-7.91,23.38,54.25,54.25,0,0,0,1.46,23.44,45.62,45.62,0,0,0,10.31,18,46.68,46.68,0,0,0,17.57,11.53,63.92,63.92,0,0,0,22.93,4A73.47,73.47,0,0,0,241,162.53a1,1,0,0,0,.79-.83l3.93-30.37a1,1,0,0,0-.38-.92,1,1,0,0,0-1-.11,31,31,0,0,1-12.77,2.54c-8,0-13.88-2.38-17.54-7.07s-5-11-3.85-18.77,4.27-14.14,9.34-18.94a25.9,25.9,0,0,1,4.21-3.21l.28-.17a29.55,29.55,0,0,1,15.23-3.8c8,0,13.91,2.38,17.64,7.08s5.09,11,4,18.77L252.18,168c-1.13,7.78-4.31,14.15-9.45,18.93a26.26,26.26,0,0,1-13.17,6.59,10.81,10.81,0,0,0-8.7,9.1l-3,21.28a1,1,0,0,0,.28.83,1.09,1.09,0,0,0,.79.29,73.3,73.3,0,0,0,24-4,66.6,66.6,0,0,0,36-29.36,62.09,62.09,0,0,0,8-23.38L295.72,107a54.25,54.25,0,0,0-1.46-23.44Z" fill="#ff5f00"/></svg>