<svg id="Layer_1" data-name="Layer 1" xmlns="http://www.w3.org/2000/svg" viewBox="0 0 224.36 400"><path id="Path_499" data-name="Path 499" d="M299.45,76.26C282.07,33,242.77,0,200.36,0h-.07c-42.41,0-81.68,33-99.1,76.26a193.79,193.79,0,0,0-7.1,117.53A152.76,152.76,0,0,0,135,260.21c18.47,18.8,42.54,38.45,45.89,66.22A199.43,199.43,0,0,1,174.51,400h51.62a199.22,199.22,0,0,1-6.41-73.57c3.4-27.77,27.42-47.42,45.89-66.22a152.72,152.72,0,0,0,41-66.42A193.87,193.87,0,0,0,299.45,76.26Z" transform="translate(-88.15)"/></svg>