<svg id="Layer_1" data-name="Layer 1" xmlns="http://www.w3.org/2000/svg" viewBox="0 0 100 100"><defs><style>.cls-1{fill:#ff5f00;}.cls-2{fill:#fff;}</style></defs><g id="Group_502" data-name="Group 502"><rect id="Rectangle_209-2" data-name="Rectangle 209-2" class="cls-1" width="100" height="100" rx="16.23"/><g id="Group_502-2" data-name="Group 502-2"><path id="Path_499" data-name="Path 499" class="cls-2" d="M71.16,31.29c-3.69-9.18-12-16.18-21-16.18h0c-9,0-17.34,7-21,16.18a41.23,41.23,0,0,0-1.51,24.94,32.48,32.48,0,0,0,8.7,14.1c3.92,4,9,8.16,9.73,14A42.44,42.44,0,0,1,44.64,100h11a42.44,42.44,0,0,1-1.36-15.62c.72-5.89,5.82-10.06,9.74-14a32.46,32.46,0,0,0,8.69-14.1A41.15,41.15,0,0,0,71.16,31.29Z" transform="translate(0)"/></g></g></svg>